<?xml version="1.0" standalone="no"?>
<!DOCTYPE svg PUBLIC "-//W3C//DTD SVG 20010904//EN"
 "http://www.w3.org/TR/2001/REC-SVG-20010904/DTD/svg10.dtd">
<svg version="1.0" xmlns="http://www.w3.org/2000/svg"
 width="380.000000pt" height="380.000000pt" viewBox="0 0 380.000000 380.000000"
 preserveAspectRatio="xMidYMid meet">
<metadata>
Created by potrace 1.14, written by Peter Selinger 2001-2017
</metadata>
<g transform="translate(0.000000,380.000000) scale(0.100000,-0.100000)"
fill="#000000" stroke="none">
<path d="M1725 3474 c-134 -13 -317 -58 -410 -99 -92 -40 -177 -83 -234 -117
-34 -21 -65 -38 -68 -38 -2 0 -11 -6 -18 -12 -8 -7 -20 -17 -27 -23 -63 -48
-175 -142 -181 -151 -4 -7 -24 -30 -45 -52 -73 -77 -102 -112 -102 -122 0 -5
-3 -10 -7 -10 -5 0 -21 -23 -38 -51 -16 -28 -34 -56 -40 -62 -5 -7 -18 -28
-28 -47 -9 -19 -25 -48 -35 -65 -20 -32 -66 -145 -87 -210 -31 -99 -44 -157
-66 -300 -40 -251 18 -607 138 -850 58 -118 136 -246 155 -253 4 -2 8 -8 8
-14 0 -5 6 -15 13 -23 6 -7 39 -43 72 -80 98 -109 113 -125 120 -125 4 0 15
-8 24 -18 9 -10 32 -29 51 -42 19 -14 46 -35 60 -47 14 -13 30 -23 37 -23 7 0
13 -4 13 -8 0 -5 15 -16 33 -25 17 -9 50 -27 72 -40 104 -60 312 -137 428
-158 76 -14 290 -35 331 -33 253 11 427 50 610 134 37 16 69 30 71 30 3 0 35
18 71 40 36 22 69 40 74 40 4 0 19 11 33 24 15 14 33 29 41 33 38 23 101 78
194 170 150 151 280 353 342 533 7 19 16 44 20 55 8 20 17 52 44 155 26 97 36
197 36 347 0 188 -10 253 -75 463 -41 134 -119 310 -137 310 -4 0 -8 5 -8 11
0 27 -133 200 -224 292 -102 103 -112 112 -176 157 -19 13 -40 29 -47 35 -41
35 -79 57 -193 111 -52 25 -106 51 -120 58 -14 7 -45 18 -70 25 -25 8 -56 17
-70 21 -14 5 -50 14 -80 20 -30 7 -71 16 -92 21 -39 10 -347 20 -413 13z m5
-1124 l0 -90 -300 0 -300 0 0 -117 0 -118 275 3 275 3 0 -96 0 -95 -275 0
-275 0 0 -145 0 -145 310 0 310 0 0 -90 0 -90 -420 0 -420 0 0 535 0 535 410
0 410 0 0 -90z m403 68 c9 -13 37 -54 62 -93 25 -38 49 -77 55 -85 6 -8 26
-41 46 -72 19 -32 39 -58 43 -58 9 0 31 32 114 165 31 50 67 107 81 128 l26
37 125 0 c69 0 125 -2 125 -5 0 -3 -43 -70 -96 -148 -52 -78 -99 -149 -104
-157 -5 -8 -38 -58 -74 -111 -67 -99 -68 -108 -29 -147 7 -7 13 -16 13 -20 0
-4 11 -20 25 -36 14 -16 25 -33 25 -37 0 -4 6 -14 13 -21 23 -25 57 -77 57
-88 0 -5 4 -10 9 -10 5 0 12 -8 16 -19 3 -10 17 -31 31 -47 14 -16 37 -49 52
-74 14 -25 29 -47 32 -50 4 -3 21 -26 39 -52 l32 -48 -133 0 c-124 0 -135 1
-148 21 -8 11 -23 30 -32 41 -10 11 -20 29 -23 39 -4 11 -11 19 -16 19 -5 0
-9 5 -9 10 0 8 -96 160 -123 195 -4 5 -14 19 -21 29 -12 18 -15 16 -42 -30
-15 -27 -34 -55 -41 -62 -6 -6 -15 -21 -18 -32 -3 -11 -11 -20 -16 -20 -5 0
-9 -7 -9 -15 0 -9 -7 -18 -15 -21 -8 -4 -15 -10 -15 -16 0 -5 -23 -42 -50 -83
l-51 -75 -129 0 c-72 0 -130 2 -130 4 0 4 192 292 208 311 4 6 36 53 70 105
34 52 69 104 77 115 18 24 18 26 1 50 -50 68 -266 396 -266 405 0 5 -4 10 -9
10 -5 0 -13 9 -16 20 -3 11 -13 27 -21 35 -14 13 -1 15 114 15 122 0 130 -1
145 -22z"/>
</g>
</svg>
